<svg xmlns="http://www.w3.org/2000/svg" viewBox="0 0 240 150" width="240" height="150" role="img" aria-label="JEM Roofing Co.">
  <!-- placeholder mark echoing the real logo: twin roofs, wordmark, inverted triangle -->
  <g>
    <!-- back house (right) -->
    <path d="M118 44 L160 12 L202 44 L192 44 L160 20 L128 44 Z" fill="#5A7D55"/>
    <rect x="134" y="42" width="52" height="30" fill="#5A7D55"/>
    <rect x="155" y="54" width="10" height="18" fill="#DFE3DD"/>
    <!-- front house (left) -->
    <path d="M38 54 L86 16 L134 54 L122 54 L86 26 L50 54 Z" fill="#0F4A17"/>
    <rect x="56" y="52" width="60" height="30" fill="#0F4A17"/>
    <rect x="80" y="62" width="12" height="20" fill="#DFE3DD"/>
    <rect x="104" y="20" width="8" height="16" fill="#0F4A17"/>
  </g>
  <line x1="6" y1="96" x2="56" y2="96" stroke="currentColor" stroke-width="2"/>
  <line x1="184" y1="96" x2="234" y2="96" stroke="currentColor" stroke-width="2"/>
  <text x="120" y="101" text-anchor="middle" textLength="120" lengthAdjust="spacingAndGlyphs" font-family="'Manrope','Inter',Arial,sans-serif" font-size="16" font-weight="800" letter-spacing="1.5" fill="currentColor">JEM ROOFING CO.</text>
  <polygon points="66,112 174,112 120,148" fill="#0F4A17"/>
  <polygon points="66,112 120,112 120,148" fill="#2E8B3E" opacity=".85"/>
</svg>
